# xmcd
#
# Track frame offsets: 
#        150
#        22168
#        46815
#        67856
#        88401
#        107561
#        131097
#        152465
#        172239
#        191798
#        211990
#        231320
#        252048
#
# Disc length: 3656 seconds
#
# Revision: 0
# Processed by: cddbd v1.5.2PL0 Copyright (c) Steve Scherf et al.
# Submitted via: ExactAudioCopyFreeDBPlugin 1.0
#
DISCID=b50e460d
DTITLE=谭艳 - 舍爱
DYEAR=2013
DGENRE=
TTITLE0=如果没有你
TTITLE1=光明
TTITLE2=如果爱你只有一次
TTITLE3=我是真的真的爱你我的宝贝
TTITLE4=想念你
TTITLE5=唱不完的情唱不完的爱
TTITLE6=祝我幸福
TTITLE7=囚鸟
TTITLE8=北京北京
TTITLE9=需要人陪
TTITLE10=十一年
TTITLE11=往事
TTITLE12=祝你一路顺风
EXTD=
EXTT0=
EXTT1=
EXTT2=
EXTT3=
EXTT4=
EXTT5=
EXTT6=
EXTT7=
EXTT8=
EXTT9=
EXTT10=
EXTT11=
EXTT12=
PLAYORDER=
